<svg viewBox="0 0 24 24" xmlns="http://www.w3.org/2000/svg"><circle cx="12" cy="13" r="3" stroke="currentColor" stroke-width="1.5" fill="none"/><path d="M3 13c0-2.8 0-4.21.67-5.22.3-.44.67-.77 1.11-1.06C5.79 6 7.19 6 10 6h4c2.81 0 4.21 0 5.22.67.44.3.77.67 1.06 1.11.67 1.01.67 2.41.67 5.22s0 4.21-.67 5.22c-.3.44-.67.77-1.11 1.06C18.21 20 16.81 20 14 20h-4c-2.81 0-4.21 0-5.22-.67-.44-.3-.77-.67-1.06-1.11C3.44 17.88 3.29 17.48 3.19 17" stroke="currentColor" stroke-width="1.5" stroke-linecap="round" fill="none"/><path d="M18 10h-.5" stroke="currentColor" stroke-width="1.5" stroke-linecap="round"/><path d="M14.5 3.5h-5" stroke="currentColor" stroke-width="1.5" stroke-linecap="round"/></svg>